<?xml version="1.0" encoding="UTF-8"?>
<svg id="_ロゴ" data-name="ロゴ" xmlns="http://www.w3.org/2000/svg" viewBox="0 0 948.4 220">
  <defs>
    <style>
      .cls-1 {
        fill: #fff;
      }
    </style>
  </defs>
  <g id="horiz_dark">
    <g id="_ロゴマーク" data-name="ロゴマーク">
      <path class="cls-1" d="M77.72,165h-22.72V55h41.57v88.88c0,11.95-5.73,21.12-18.85,21.12Z"/>
      <rect class="cls-1" x="105.24" y="55" width="41.57" height="110"/>
      <path class="cls-1" d="M197.06,165h0c-29.04,0-41.57-16.6-41.57-45.7V55h41.57v110Z"/>
    </g>
    <g id="_ロゴタイプ" data-name="ロゴタイプ">
      <path class="cls-1" d="M274.2,67.36c6.26,0,17.91-.55,23.08-.99,2.75-.11,5.6-.77,7.47-1.54l8.79,6.81c-1.54,1.65-2.86,3.08-3.74,4.62-2.86,4.73-7.03,14.29-10.99,23.63,8.57,1.32,16.7,3.96,23.85,7.03.11-1.32.22-2.53.33-3.74.33-4.29.33-8.68,0-11.98l14.4,1.65c-.44,7.36-.99,14.18-2.09,20.33,4.62,2.64,8.57,5.16,11.76,7.36l-6.37,15.28c-2.86-2.64-6.04-5.16-9.45-7.69-4.84,12.42-13.19,22.09-27.91,29.78l-11.65-9.56c16.59-7.14,24.29-17.58,27.91-27.58-7.8-4.29-16.59-7.58-26.04-8.9-3.96,9.34-8.57,20.33-12.42,26.37-4.4,6.59-9.67,9.67-17.14,9.67-9.67,0-16.92-6.7-16.92-17.8,0-17.03,15.49-30,37.58-30.99,3.08-7.25,6.26-14.73,8.79-19.89-4.4.22-13.85.55-18.9.88-2.2.11-6.04.44-8.9.88l-.55-14.18c2.97.33,6.7.55,9.12.55ZM264.53,133.52c2.2,0,3.74-1.1,5.71-3.85,2.86-4.07,5.82-10.99,8.9-17.91-12.31,1.87-19.23,9.34-19.23,16.26,0,3.63,2.09,5.49,4.62,5.49Z"/>
      <path class="cls-1" d="M409.88,73.52c-5.38,7.91-13.08,21.98-18.57,31.65,4.07-2.31,8.46-3.3,12.64-3.3,8.24,0,13.19,5.16,13.63,14.29.22,4.94-.11,13.74.44,18.35.44,4.29,3.52,5.93,7.14,5.93,9.56,0,15.38-12.31,18.57-25.93l11.87,9.67c-5.71,18.79-15.93,31.32-32.75,31.32-12.2,0-17.91-7.25-18.35-15.27-.44-5.82-.33-14.84-.66-19.34-.33-3.85-2.53-6.15-6.48-6.15-7.47,0-13.63,7.69-17.58,16.59-2.86,6.37-6.7,18.68-8.35,24.51l-15.49-5.27c8.13-21.98,30.66-66.81,36.48-77.25,1.43-2.97,3.52-6.59,5.38-11.21l15.6,6.26c-1.1,1.54-2.31,3.41-3.52,5.16Z"/>
      <path class="cls-1" d="M509.48,76.59c5.38-.99,10.55-2.2,14.84-3.52l.44,12.75c-5.05,1.32-11.87,2.75-19.23,3.85-5.27,15.38-14.61,34.62-23.52,47.03l-13.3-6.81c8.68-10.77,17.58-26.92,22.42-38.79-1.98.11-3.85.11-5.71.11-4.51,0-9.01-.11-13.74-.44l-.99-12.75c4.72.55,10.55.77,14.61.77,3.3,0,6.59-.11,10-.44,1.54-6.04,2.75-12.64,2.97-18.35l15.17,1.54c-.88,3.52-2.31,9.12-3.96,15.05ZM539.15,109.78c.11,3.19.44,8.46.66,13.96,9.45,3.52,17.14,9.01,22.75,14.07l-7.36,11.76c-3.85-3.52-8.79-8.13-14.84-11.76v1.1c0,10.22-5.6,18.13-21.21,18.13-13.63,0-24.4-6.04-24.4-18.13,0-10.77,9.01-19.01,24.29-19.01,2.64,0,5.06.22,7.58.44-.44-8.13-.99-17.91-1.21-24.62h13.74c-.33,4.62-.11,9.23,0,14.07ZM517.18,144.4c7.58,0,9.89-4.18,9.89-10.22v-2.2c-2.86-.66-5.82-1.1-8.9-1.1-6.37,0-10.44,2.86-10.44,6.7,0,4.07,3.41,6.81,9.45,6.81ZM531.68,85.93l7.03-10.88c7.91,3.41,21.54,10.88,27.14,14.95l-7.8,11.54c-6.37-5.06-18.9-12.2-26.37-15.6Z"/>
      <path id="_0.5" data-name="0.5" class="cls-1" d="M619.54,145.49l.68-.07c3.4-.36,5.89-.88,8.57-1.47,13.01-3.05,20.78-12.17,20.78-24.4,0-12.86-6.97-21.78-18.67-23.95-1.29,7.79-2.86,16.17-5.5,24.73-5.92,19.94-14.23,30.48-24.02,30.48-10.78,0-19.22-12.02-19.22-27.37,0-22.09,19.26-40.05,42.92-40.05,22.28,0,37.83,15.02,37.83,36.54s-12.66,33.81-35.64,37.36l-.27.04-7.45-11.83ZM617.45,95.91c-15.58,3.52-22.6,17.43-22.6,26.31s3.57,13.47,6.89,13.47c3.64,0,7.21-5.9,10.89-18.03,2.11-6.8,3.82-14.5,4.81-21.74Z"/>
      <path class="cls-1" d="M745.38,141.21c11.65,3.74,24.29,8.57,31.98,11.98l-14.18,6.48c-6.81-3.63-18.9-8.68-30.88-12.75l8.9-5.71h-30.66l9.56,4.29c-9.23,6.04-23.63,11.32-35.06,14.51-2.2-2.64-6.92-7.36-9.67-9.56,10.77-1.98,22.75-5.49,30.55-9.23h-16.92v-48.24h75.06v48.24h-18.68ZM769.88,88.46h-86.81v-27.03h86.81v27.03ZM708.34,71.21h-13.19v7.58h13.19v-7.58ZM702.19,106.59h48.13v-5.38h-48.13v5.38ZM702.19,119.78h48.13v-5.49h-48.13v5.49ZM702.19,132.97h48.13v-5.5h-48.13v5.5ZM732.52,71.21h-13.3v7.58h13.3v-7.58ZM757.25,71.21h-13.85v7.58h13.85v-7.58Z"/>
      <path class="cls-1" d="M889.33,73.08c-2.31,23.96-7.58,42.86-15.82,57.58,5.38,7.36,11.98,13.52,19.89,17.8-2.97,2.42-7.03,7.36-9.01,10.77-7.47-4.51-13.63-10.11-18.9-16.81-5.6,6.81-12.09,12.31-19.56,16.81-1.65-2.86-4.62-6.92-7.25-9.56v10.33h-12.64v-17.58c-12.64,2.2-25.49,4.18-35.6,5.71l-2.53-13.08c2.97-.33,6.37-.66,10.11-1.1v-58.35h-7.47v-12.09h55.16v7.8h32.86l2.2-.33,8.57,2.09ZM810.43,75.6v10.44h15.6v-10.44h-15.6ZM810.43,108.79h15.6v-10.99h-15.6v10.99ZM810.43,132.42c5.06-.66,10.33-1.43,15.6-2.09v-9.89h-15.6v11.98ZM838.67,147.91c7.25-4.07,13.63-10,19.01-17.47-6.7-12.2-11.43-26.92-14.84-43.52l12.53-2.53c2.2,11.76,5.49,22.86,10.11,32.53,4.29-9.45,7.58-20.44,9.45-32.75h-32.42v-8.57h-3.85v72.31Z"/>
    </g>
  </g>
</svg>